<?xml version="1.0" encoding="utf-8"?>
<!-- Generator: Adobe Illustrator 16.0.0, SVG Export Plug-In . SVG Version: 6.00 Build 0)  -->
<!DOCTYPE svg PUBLIC "-//W3C//DTD SVG 1.1//EN" "http://www.w3.org/Graphics/SVG/1.1/DTD/svg11.dtd">
<svg version="1.1" id="Layer_1" xmlns="http://www.w3.org/2000/svg" xmlns:xlink="http://www.w3.org/1999/xlink" x="0px" y="0px"
	 width="300px" height="100px" viewBox="0 0 300 100" enable-background="new 0 0 300 100" xml:space="preserve">
<g display="none">
	
		<circle display="inline" fill="none" stroke="#2A2929" stroke-miterlimit="10" stroke-dasharray="12.0799,12.0799" cx="52.571" cy="50" r="50">
	
		<animateTransform  type="rotate" fill="remove" restart="always" calcMode="linear" additive="replace" accumulate="none" repeatCount="indefinite" dur="10s" to="360 50 50" from="0 50 50" attributeType="XML" attributeName="transform">
		</animateTransform>
	</circle>
</g>
<g>
	<g display="none">
		<circle display="inline" fill="#20b1e6" cx="52.571" cy="50" r="35.513"/>
		<g display="inline">
			<g>
				<path opacity="0.1091" fill="#20b1e6" d="M55.57,19.064c1.454,0.117,2.908,0.234,4.363,0.352
					c3.928,0.627,7.604,1.999,11.026,4.115c3.52,1.897,6.131,5.033,8.635,8.039c-5.076,16.871-10.151,33.741-15.228,50.612
					c-2.546,1.007-5.178,1.699-7.892,2.078c-4.205,0.845-8.524,0.114-12.665-0.602c-4.112-0.709-7.769-2.921-11.264-5.035
					c-3.476-2.105-6.068-5.381-8.54-8.507c-2.548-3.224-3.849-7.184-5.102-11.018c-0.702-2.706-1.07-5.456-1.104-8.252
					c-0.168-18.02,12.525-29.393,38.083-34.121c0.764,0.03,0.826-0.609,0.169-0.879c-1.22-0.501-3.036-0.922-4.357-0.842
					c-2.923-0.002-5.801,0.352-8.634,1.066c-2.753,0.684-5.386,1.686-7.896,3.008c-5.163,2.332-9.076,6.63-12.554,10.929
					c-3.681,4.55-5.206,10.339-6.334,15.928c-0.393,3.023-0.419,6.052-0.08,9.081c0.229,4.431,2.118,8.619,3.927,12.567
					c1.761,3.849,5.084,7.925,8.425,10.499c2.086,1.789,4.348,3.323,6.784,4.602c1.329,0.6,2.665,1.184,4.005,1.754
					c2.796,1.218,5.737,1.551,8.704,2.029c2.846,0.458,6.905,0.279,9.72-0.334c5.725-1.245,11.389-3.148,15.939-7.021
					c1.197-0.83,2.28-1.781,3.249-2.851c1.897-1.866,3.563-3.924,4.995-6.171c1.527-2.408,2.753-4.962,3.678-7.659
					c1.665-4.057,1.783-8.532,1.899-12.83c0.158-5.778-2.115-11.283-4.591-16.342c-1.784-3.645-5.063-7.391-8.28-9.823
					c-2.229-1.686-4.32-3.344-6.905-4.493c-1.268-0.563-2.536-1.127-3.804-1.688c-1.35-0.413-2.698-0.824-4.047-1.236
					c-2.754-0.775-5.563-1.191-8.425-1.251c-1.139-0.097,0.684,1.669,0.606,1.594c0.7,0.667,1.428,1.305,2.181,1.913
					C54.628,18.662,55.065,18.925,55.57,19.064z"/>
				<path opacity="0.1091" fill="#20b1e6" d="M56.371,17.166c2.865,0.02,5.667,0.447,8.404,1.283
					c3.803,1.185,7.214,3.041,10.229,5.57c9.797,7.153,12.276,22.137,10.33,33.131c0.147-0.557,0.292-1.114,0.438-1.672
					c-0.569,1.864-1.139,3.73-1.709,5.595c0.208-0.543,0.416-1.085,0.623-1.628c-0.791,1.774-1.582,3.549-2.374,5.322
					c0.271-0.527,0.542-1.055,0.812-1.582c-0.981,1.659-1.962,3.319-2.944,4.979c0.333-0.501,0.667-1.001,1.001-1.502
					c-6.815,4.908-13.631,9.814-20.448,14.723c0.667-0.206,1.336-0.411,2.003-0.616c-3.388,0.552-6.776,1.101-10.165,1.65
					c1.165-0.035,2.332-0.07,3.498-0.105c-2.585-0.047-5.17-0.094-7.755-0.141c1.2,0.107,2.4,0.216,3.6,0.325
					c-2.592-0.357-5.185-0.716-7.779-1.073c1.196,0.266,2.393,0.53,3.589,0.795c-2.521-0.687-5.041-1.375-7.563-2.062
					c1.19,0.425,2.379,0.849,3.568,1.272c-2.426-0.99-4.854-1.979-7.282-2.968c0.727,0.349,1.453,0.697,2.178,1.046
					c-1.874-1.06-3.75-2.121-5.624-3.182c0.693,0.451,1.387,0.902,2.081,1.353c-1.741-1.28-3.482-2.562-5.225-3.844
					c0.632,0.544,1.265,1.088,1.896,1.63c-1.571-1.493-3.143-2.988-4.714-4.481c0.567,0.636,1.136,1.271,1.704,1.907
					c-1.391-1.683-2.782-3.364-4.173-5.048c0.479,0.709,0.958,1.416,1.437,2.123c-8.822-13.891-9.109-21.664-5.375-33.7
					c1.624-5.232,5.377-9.48,9.156-13.25c2.898-2.893,6.655-4.639,10.302-6.333c5.147-2.392,10.988-2.403,16.504-2.113
					c0.622,0.033,0.902-0.449,0.312-0.839c-0.857-0.565-2.604-1.396-3.647-1.358c-6.171,0.23-12.567,0.882-17.993,4.187
					c-1.333,0.663-2.585,1.443-3.758,2.345c-3.368,2.599-3.264,2.523-6.219,5.554c-1.978,2.029-4.051,5.156-5.187,7.751
					c-0.714,1.326-1.298,2.703-1.752,4.13c-1.064,3.803-1.16,4.342-1.784,8.275c-0.425,2.673-0.162,7.096,0.461,9.712
					c0.493,2.728,1.295,5.362,2.407,7.904c1.454,3.979,4.33,7.304,7.044,10.447c4.306,4.988,10.677,7.98,16.868,9.751
					c2.931,0.839,6.333,1.33,9.385,1.151c6.767-0.396,13.883-1.881,19.441-6.058c5.333-4.01,10.323-8.94,12.734-15.336
					c0.542-1.274,1.019-2.573,1.43-3.894c0.75-3.194,0.982-4.462,1.345-7.746c0.665-6.028-1.059-11.768-3.276-17.268
					c-2.652-6.579-8.235-11.325-13.971-15.099c-4.858-3.194-10.937-4.237-16.576-4.754c-0.927-0.084,0.047,1.269,0.136,1.386
					C54.455,15.42,55.489,17.095,56.371,17.166z"/>
				<path opacity="0.1091" fill="#20b1e6" d="M56.784,18.658c2.882,0.013,5.701,0.441,8.456,1.286
					c6.226,1.89,11.409,5.58,15.552,11.07c4.399,5.247,5.802,12.233,6.338,18.824c0.573,7.059-2.348,13.768-5.9,19.624
					c-1.538,2.218-3.313,4.226-5.328,6.022c-1.055,0.835-2.108,1.669-3.161,2.504c-1.139,0.702-2.277,1.405-3.416,2.108
					c-4.137-21.274-8.274-42.546-12.413-63.82c0.874,0.034,1.05-0.522,0.204-0.872c-1.682-0.692-4.076-1.386-5.902-1.187
					c-3.838,0.418-4.485,0.561-8.237,1.433c-4.183,0.972-7.883,3.458-11.374,5.813c-4.704,3.176-7.859,8.071-10.569,12.907
					c-2.857,5.098-3.403,11.052-3.587,16.746c-0.143,4.394,1.309,8.646,2.722,12.719c1.855,5.341,5.797,9.625,9.767,13.459
					c4.116,3.977,9.597,6.03,14.937,7.669c5.739,1.761,11.866,0.95,17.602-0.178c4.252-0.835,8.039-3.196,11.638-5.454
					c4.9-3.074,8.253-7.954,11.129-12.812c2.187-3.694,3.647-8.842,3.82-13.114c0.122-3.023,0.35-6.105-0.3-9.102
					c-1.217-5.601-2.983-11.461-6.799-15.93c-1.733-2.275-3.7-4.328-5.902-6.155c-2.216-1.816-4.61-3.355-7.182-4.619
					c-5.012-2.833-10.841-3.792-16.475-4.294c-1.187-0.105,0.661,1.855,0.635,1.823c0.749,0.843,1.528,1.659,2.335,2.447
					C55.763,18.051,56.232,18.413,56.784,18.658z"/>
				<path opacity="0.1091" fill="#20b1e6" d="M58.54,20.723c5.47,0.028,10.602,1.549,15.395,4.563
					c3.488,1.921,6.056,5.123,8.487,8.159c2.527,3.155,3.746,7.085,4.93,10.863c1.263,4.026,0.923,8.374,0.6,12.487
					c-0.338,4.298-2.245,8.169-4.122,11.946C77.831,80.82,67.915,83.89,57.148,85.383c-10.547,1.463-22.312-5.135-28.878-12.441
					c-0.766-1.079-1.531-2.157-2.296-3.233c-0.64-1.173-1.277-2.345-1.916-3.516c11.514-16.019,23.03-32.037,34.544-48.055
					c0.262,0.01,1.488-0.01,1.035-0.68c-0.413-0.61-2.095-0.595-2.714-0.604c-2.861-0.037-5.612-0.029-8.428,0.537
					c-3.557,0.714-6.723,1.877-10.028,3.364c-2.346,1.055-5.289,3.114-7.131,4.904c-2.858,2.776-5.619,5.662-7.423,9.269
					c-0.718,1.163-1.308,2.381-1.771,3.654c-1.237,3.626-1.28,3.853-2.102,7.645c-0.478,2.199-0.612,6.487-0.256,8.728
					c0.187,1.326,0.399,2.648,0.634,3.967c1.175,4.324,0.893,3.519,2.625,7.775c1.168,2.482,2.612,4.794,4.328,6.934
					c1.348,1.897,4.177,4.646,6.08,5.95c1.098,0.871,2.251,1.651,3.46,2.343c4.101,2.113,3.109,1.682,7.496,3.269
					c5.643,2.042,11.719,1.565,17.506,0.719c4.296-0.63,8.18-2.819,11.898-4.896c1.954-1.093,5.553-4.085,6.963-5.833
					c1.992-2.199,3.708-4.594,5.153-7.185c2.475-3.903,3.235-8.693,3.906-13.144c0.325-3.091,0.195-6.161-0.391-9.21
					c-0.527-4.472-2.652-8.421-4.745-12.303c-1.562-2.41-3.381-4.608-5.458-6.594c-1.701-1.827-5.013-4.101-7.23-5.17
					c-1.239-0.68-2.511-1.284-3.817-1.814c-1.356-0.446-2.713-0.893-4.069-1.34c-2.742-0.816-5.543-1.252-8.406-1.311
					c-0.959-0.086,0.197,1.332,0.244,1.387C56.514,19.125,57.602,20.646,58.54,20.723z"/>
				<path opacity="0.1091" fill="#20b1e6" d="M58.495,19.001c1.453,0.119,2.905,0.238,4.358,0.357
					c2.748,0.443,5.383,1.249,7.907,2.417c9.46,3.627,13.992,12.06,16.773,20.709c1.291,4.019,0.987,8.363,0.699,12.483
					c-0.354,2.836-1.081,5.572-2.183,8.209c-9.24,6.888-18.48,13.774-27.722,20.661c-7.608-20.572-15.217-41.144-22.827-61.716
					c-0.558,0.419-1.117,0.839-1.676,1.258c1.697-1.103,3.395-2.205,5.094-3.307c-0.618,0.34-1.233,0.681-1.85,1.021
					c1.835-0.886,3.671-1.771,5.508-2.656c-0.671,0.259-1.343,0.518-2.014,0.778c6.1-0.921,12.201-1.842,18.301-2.763
					c0.724,0.036,0.875-0.546,0.223-0.866c-1.085-0.533-2.982-1.181-4.202-1.085c-2.991,0.05-5.934,0.459-8.825,1.228
					c-4.136,0.836-7.827,3.168-11.331,5.368c-3.3,2.07-6.388,5.438-8.542,8.642c-2.877,4.284-5.156,9.018-5.932,14.172
					c-0.797,5.294-0.666,10.489,0.751,15.678c0.732,2.678,1.822,4.988,3.054,7.463c1.813,3.648,4.62,6.574,7.478,9.403
					c1.847,1.827,4.886,3.93,7.258,4.98c3.012,1.331,4.065,1.738,7.236,2.711c3.059,0.938,6.119,0.957,9.275,1.107
					c4.252,0.203,8.48-1.148,12.448-2.46c4.041-1.332,7.497-3.985,10.742-6.624c1.232-0.994,2.349-2.113,3.351-3.359
					c3.083-3.161,4.855-7.331,6.519-11.32c1.799-4.315,1.848-9.004,1.913-13.578c0.064-4.496-1.67-8.889-3.311-12.963
					c-1.172-2.911-2.85-4.892-4.68-7.362c-0.942-1.273-2.048-2.497-3.283-3.489c-1.124-0.904-2.248-1.808-3.37-2.711
					c-2.363-1.683-4.885-3.075-7.567-4.174c-3.881-1.856-8.3-2.352-12.507-2.753c-1.01-0.097,0.144,1.455,0.226,1.571
					c0.516,0.713,1.063,1.403,1.64,2.068C57.699,18.508,58.055,18.81,58.495,19.001z"/>
				<path opacity="0.1091" fill="#20b1e6" d="M55.882,18.14c2.791-0.051,5.528,0.299,8.215,1.048
					c3.796,1.24,7.156,3.181,10.079,5.819c3.836,3.443,6.646,7.667,8.43,12.67c0.361,1.277,0.723,2.555,1.084,3.831
					C66.077,52.826,48.463,64.144,30.85,75.461c0.409,0.287,0.815,0.573,1.224,0.86C21.721,68.08,18.908,62.12,17.17,51.58
					c-0.71-4.298,0.178-8.598,1.042-12.778c2.144-10.378,13.519-19.399,21.96-22.771c5.225-2.089,10.987-1.837,16.44-1.279
					c0.773,0.08,0.662-1.124-0.165-1.203c-2.886-0.457-5.784-0.558-8.695-0.303c-2.831,0.25-5.592,0.83-8.284,1.74
					c-4.216,1.156-7.837,3.725-11.273,6.289c-3.682,2.746-6.225,6.588-8.663,10.391c-1.416,2.7-2.5,5.528-3.25,8.484
					c-1.405,4.424-0.892,9.359-0.392,13.852c0.465,2.947,1.333,5.77,2.604,8.467c1.585,4.082,4.517,7.332,7.398,10.514
					c2.657,2.936,6.365,4.902,9.808,6.717c4.62,2.435,10.575,3.425,15.773,3.246c2.646-0.092,5.663-0.358,8.185-1.164
					c1.315-0.319,2.591-0.747,3.828-1.279c2.954-1.278,3.779-1.725,6.551-3.364c6.717-3.974,12.54-11.751,14.265-19.378
					c0.387-1.345,0.688-2.708,0.902-4.087c0.378-4.349,0.364-3.653,0.238-8.041c-0.115-3.978-1.463-8.81-3.463-12.257
					c-0.627-1.184-1.302-2.339-2.023-3.466c-0.806-1.052-1.611-2.105-2.416-3.157c-1.765-2.018-3.753-3.78-5.969-5.289
					c-1.195-0.788-2.434-1.489-3.718-2.105c-1.26-0.506-2.521-1.013-3.78-1.518c-2.674-0.717-5.395-1.036-8.165-0.957
					C55.152,16.85,55.107,18.097,55.882,18.14z"/>
				<path opacity="0.1091" fill="#20b1e6" d="M54.866,19.005c4.161,0.09,8.111,0.982,11.851,2.681
					c5.989,2.772,10.673,7.221,14.05,13.344c-0.275-0.501-0.551-1.002-0.826-1.502c-1.34,13.101-2.678,26.203-4.017,39.304
					c0.462-0.57,0.923-1.141,1.385-1.711c-1.408,1.496-2.815,2.993-4.223,4.491c0.538-0.507,1.078-1.014,1.618-1.521
					c-1.592,1.315-3.182,2.63-4.773,3.945c0.616-0.44,1.23-0.881,1.845-1.322c-1.752,1.127-3.504,2.254-5.257,3.38
					c0.67-0.353,1.341-0.706,2.013-1.059c-15.414,7.36-25.472,6.176-37.361-1.153c-4.645-2.863-7.821-7.533-10.574-12.081
					c-2.908-4.802-3.567-10.521-3.894-15.975c0.021-2.899,0.39-5.753,1.108-8.563c0.447-1.331,0.893-2.663,1.34-3.994
					c5.442-13.354,17.404-20.314,35.883-20.881c0.336,0.021,1.225,0.039,0.941-0.613c-0.31-0.711-2.097-0.768-2.734-0.786
					c-2.906-0.08-5.758-0.257-8.635,0.384c-1.401,0.25-2.785,0.569-4.152,0.952c-3.428,1.224-3.999,1.448-7.258,3.075
					c-4.035,2.016-7.124,5.172-10.162,8.406c-1.841,2.248-3.399,4.677-4.677,7.288c-2.242,3.98-2.834,8.664-3.375,13.096
					c-0.745,6.125,1.147,12.138,3.449,17.69c1.258,2.692,2.86,5.163,4.803,7.412c2.705,3.601,6.479,5.986,10.211,8.351
					c2.641,1.384,5.403,2.447,8.292,3.188c4.336,1.387,9.099,0.987,13.53,0.609c7.215-0.614,13.559-4.623,18.965-9.094
					c4.925-4.072,8.274-10.368,10.116-16.391c1.278-4.176,1.7-9.019,1.106-13.343c-0.721-5.265-2.143-10.678-5.312-15.062
					c-0.749-1.089-1.528-2.155-2.338-3.199c-0.907-0.963-1.814-1.927-2.723-2.892c-1.94-1.845-4.079-3.423-6.415-4.732
					c-4.836-3.124-10.696-3.941-16.28-4.446c-0.862-0.078,0.169,1.169,0.209,1.207C53.18,18.049,54.011,18.936,54.866,19.005z"/>
				<path opacity="0.1091" fill="#20b1e6" d="M56.495,21.26c4.173,0.072,8.13,0.966,11.871,2.68c1.17,0.642,2.339,1.285,3.509,1.928
					c15.042,17.557,17.702,33.002,7.978,46.335C76.13,78,69.979,81.55,63.854,84.208c-2.62,0.923-5.312,1.536-8.077,1.835
					c-9.352,1.569-20.299-3.652-26.791-9.26c-3.126-2.7-5.157-6.358-7.123-9.906c-0.504-1.248-1.009-2.497-1.513-3.745
					c-5.306-26.522,6.614-41.309,35.762-44.361c0.381,0.017,1.546,0.21,1.588-0.468c0.042-0.675-1.137-0.638-1.517-0.663
					c-5.442-0.343-11.091-0.133-16.191,2.075c-2.478,1.073-4.892,2.023-7.086,3.651c-1.091,0.772-2.161,1.571-3.21,2.396
					c-2.537,2.422-2.937,2.824-5.211,5.52c-4.745,5.624-6.442,12.837-7.034,19.952c-0.25,3.013,0.342,5.858,0.821,8.806
					c0.616,2.747,1.544,5.385,2.786,7.914c1.661,3.95,4.681,7.153,7.571,10.202c2.03,2.144,4.488,3.533,6.945,5.092
					c3.971,2.518,8.64,3.429,13.171,4.271c3.077,0.311,6.148,0.259,9.214-0.152c2.969-0.479,5.845-1.287,8.628-2.425
					c2.713-1.203,5.258-2.689,7.637-4.461c3.674-2.432,6.294-6.272,8.695-9.844c3.387-5.034,4.342-11.084,4.804-16.971
					c0.061-2.967-0.255-5.893-0.948-8.778c-0.728-4.159-2.926-7.873-5.053-11.423c-2.812-4.693-7.351-7.953-11.895-10.76
					c-4.93-3.046-10.764-3.849-16.399-4.299c-0.954-0.076,0.425,1.294,0.392,1.267C54.542,20.265,55.522,21.182,56.495,21.26z"/>
				<path opacity="0.1091" fill="#20b1e6" d="M58.376,17.249c5.51,0.062,10.673,1.624,15.49,4.684
					c3.508,1.949,6.084,5.287,8.478,8.383c3.771,5.542,5.61,11.852,5.514,18.929c-0.126,1.415-0.25,2.829-0.375,4.243
					c-7.26,8.769-14.521,17.537-21.78,26.306C50.895,66.34,36.089,52.887,21.282,39.433c-0.137,0.632-0.276,1.265-0.413,1.899
					c0.567-1.946,1.135-3.892,1.701-5.839c-0.23,0.606-0.461,1.212-0.691,1.819c0.812-1.835,1.626-3.669,2.439-5.505
					c-0.321,0.575-0.644,1.149-0.965,1.723c6.017-9.903,10.105-13.269,18.87-17.203c5.194-2.332,11.035-2.248,16.561-1.882
					c0.517,0.033,0.815-0.433,0.373-0.813c-0.602-0.517-2.011-1.297-2.822-1.29c-3.134-0.158-6.245,0.045-9.332,0.61
					c-4.416,0.549-8.536,2.937-12.28,5.132c-2.449,1.586-4.638,3.471-6.572,5.654c-3.102,3.064-4.935,7.016-6.716,10.904
					c-0.947,2.42-1.592,4.916-1.937,7.489c-0.315,1.667-0.497,3.399-0.418,5.093c0.176,3.75,0.601,7.06,1.564,10.688
					c1.34,5.048,4.278,10.164,7.919,13.869c2.721,2.77,5.521,4.886,8.799,6.961c3.527,2.232,7.815,3.142,11.842,3.892
					c6.722,1.253,15.16-0.189,21.032-3.603c1.214-0.579,2.36-1.261,3.438-2.049c2.99-2.2,3.156-2.353,5.852-4.899
					c3.058-2.889,5.016-6.64,6.827-10.357c1.91-3.926,2.984-9.2,2.742-13.56c0.02-1.47-0.071-2.93-0.271-4.379
					c-0.822-4.509-0.642-3.787-2.106-8.303c-1.021-2.663-2.373-5.147-4.054-7.451c-2.312-3.648-5.796-6.206-9.211-8.706
					c-2.172-1.589-5.323-2.604-7.805-3.544c-2.93-1.112-5.586-1.233-8.655-1.549C55.868,14.118,57.587,17.181,58.376,17.249z"/>
				<path opacity="0.1091" fill="#20b1e6" d="M55.316,20.547c10.451,0.81,16.451,3.865,23.812,12.655
					c-0.365-0.508-0.731-1.016-1.096-1.523c1.05,1.619,2.101,3.239,3.15,4.856c-0.318-0.556-0.638-1.113-0.956-1.669
					c0.869,1.745,1.737,3.489,2.606,5.233c-0.257-0.598-0.515-1.196-0.772-1.794c0.906,3.178,1.812,6.356,2.718,9.534
					c-0.112-0.666-0.226-1.33-0.338-1.995c0.194,2.031,0.388,4.06,0.582,6.09c-0.029-0.688-0.06-1.376-0.089-2.064
					c-0.054,2.085-0.108,4.173-0.162,6.26c0.063-0.689,0.127-1.377,0.189-2.066c-0.327,2.069-0.653,4.139-0.98,6.208
					c0.158-0.686,0.314-1.37,0.472-2.057c-0.582,1.993-1.162,3.985-1.743,5.979c0.25-0.654,0.502-1.309,0.754-1.964
					c-0.829,1.88-1.66,3.76-2.489,5.639c0.345-0.62,0.688-1.238,1.033-1.858c-3.549,7.015-8.606,12.237-15.17,15.664
					c-2.407,1.267-4.932,2.224-7.574,2.872c-5.491,1.708-11.326,0.995-16.824-0.083c-5.509-1.08-10.198-4.457-14.392-7.96
					c-2.003-1.86-3.748-3.937-5.232-6.233c-0.681-1.183-1.36-2.366-2.042-3.549c-9.264-27.83,2.35-44.059,34.841-48.686
					c0.372,0.021,1.138-0.136,0.831-0.713c-0.299-0.559-1.638-0.486-2.143-0.511c-5.474-0.274-11.154,0.044-16.235,2.364
					c-2.459,1.124-4.959,2.161-7.118,3.842c-1.087,0.821-2.158,1.66-3.214,2.518c-2.57,2.561-3.12,3.17-5.474,6.119
					c-2.544,3.188-4.662,7.953-5.373,11.953c-0.357,1.463-0.61,2.941-0.757,4.435c-0.224,4.383-0.241,4.101,0.106,8.461
					c0.482,6.076,3.318,11.453,6.548,16.457c1.707,2.393,3.698,4.521,5.977,6.379c3.327,3.109,7.524,4.798,11.663,6.471
					c2.991,0.914,6.048,1.466,9.171,1.655c3.111,0.092,6.189-0.179,9.237-0.808c2.914-0.692,5.709-1.706,8.391-3.041
					c3.978-1.708,7.204-4.947,10.186-7.953c4.058-4.093,6.169-9.562,7.84-14.932c1.176-3.776,1.409-8.965,0.725-12.911
					c-0.476-2.742-0.887-5.444-2-8.029c-1.525-3.541-3.28-6.549-5.595-9.633c-2.558-3.408-6.162-5.837-9.718-8.054
					c-4.886-3.046-10.671-3.813-16.262-4.26c-0.923-0.075,0.378,1.247,0.358,1.232C53.459,19.646,54.377,20.474,55.316,20.547z"/>
				<path opacity="0.1091" fill="#20b1e6" d="M57.796,17.067c1.451,0.123,2.901,0.245,4.352,0.367
					c2.763,0.413,5.394,1.24,7.895,2.483c6.086,2.462,10.344,8.08,13.52,13.597c3.932,6.829,3.522,16.661,1.932,23.644
					c-0.475,1.287-0.948,2.573-1.421,3.86c-10.008,22.1-31.598,17.389-64.771-14.133c-0.001,0.534-0.004,1.068-0.007,1.604
					c0.022-9.693,3.042-17.771,9.059-24.234c2.599-3.143,6.259-5.241,9.737-7.217c2.461-1.246,5.041-2.156,7.739-2.733
					c4.181-1.179,8.521-0.774,12.761-0.39c0.353,0.032,0.582-0.544,0.399-0.8c-0.278-0.392-1.037-0.722-1.506-0.753
					c-3.081-0.375-6.164-0.392-9.249-0.045c-2.989,0.423-5.894,1.179-8.711,2.267c-2.742,1.163-5.32,2.614-7.738,4.353
					c-3.714,2.371-6.389,6.204-8.827,9.747c-4.152,6.036-5.056,13.559-4.836,20.658c0.09,2.892,0.854,6.229,1.879,8.926
					c1.729,4.554,4.016,9.028,7.455,12.557c2.79,2.861,5.748,5.608,9.417,7.343c2.246,1.201,4.596,2.144,7.053,2.826
					c2.595,0.895,5.711,0.965,8.396,1.197c2.624,0.227,5.604-0.398,8.184-0.787c2.151-0.325,5.977-1.663,7.881-2.725
					c1.175-0.57,2.312-1.209,3.405-1.917c3.541-2.488,2.92-1.988,6.129-4.884c3.176-2.867,5.242-6.668,7.184-10.397
					c2.015-3.873,2.443-8.235,2.854-12.482c0.412-4.263-0.734-8.541-1.887-12.573c-1.542-5.394-5.251-9.66-9.106-13.515
					c-2.064-1.844-4.346-3.362-6.846-4.554c-3.804-2.161-8.125-2.551-12.366-2.917C56.623,15.34,57.084,17.008,57.796,17.067z"/>
				<path opacity="0.1091" fill="#20b1e6" d="M55.227,19.085c5.409-0.116,10.468,1.38,15.177,4.486
					c3.32,3.811,6.64,7.621,9.96,11.433C68.701,50.869,57.038,66.733,45.375,82.598c0.497,0.059,0.994,0.115,1.491,0.173
					c-15.564-2.787-20.988-8.22-27.005-18.641c-2.811-4.866-3.332-10.634-3.535-16.097c-0.479-12.8,6.962-21.31,16-27.67
					c6.749-4.749,15.767-5.438,23.652-4.624c0.7,0.073,0.549-1.095-0.234-1.174c-1.454-0.202-2.911-0.345-4.374-0.425
					c-4.847,0.123-3.542,0.004-8.458,0.73c-6.968,1.03-12.936,5.31-17.997,9.891c-3.292,2.98-5.36,6.994-7.257,10.911
					c-2.098,4.335-2.484,9.162-2.811,13.875c0.051,3.048,0.451,6.049,1.2,9.002c0.841,4.348,3.427,8.262,5.837,11.851
					c1.734,2.36,3.76,4.437,6.078,6.229c3.313,2.948,7.435,4.5,11.509,6.017c3.904,1.454,8.318,1.412,12.406,1.372
					c2.537-0.026,5.913-0.664,8.264-1.524c6.069-2.217,11.838-5.257,16.062-10.309c2.562-3.062,5.027-6.295,6.327-10.144
					c0.563-1.259,0.983-2.556,1.255-3.894c0.835-3.909,0.812-3.864,1.11-7.852c0.483-6.461-1.814-14.416-5.73-19.527
					c-0.75-1.093-1.56-2.138-2.426-3.138c-0.941-0.94-1.882-1.879-2.823-2.821c-2.014-1.787-4.235-3.262-6.665-4.425
					c-3.731-2.121-7.953-2.37-12.122-2.569C54.361,17.779,54.452,19.04,55.227,19.085z"/>
			</g>
		</g>
	</g>
	<g>
		<circle fill="#20b1e6" cx="52.571" cy="50" r="35.513"/>
		<g>
			<g>
				<path opacity="0.1091" fill="#2A2929" d="M55.57,19.064c1.454,0.117,2.908,0.234,4.363,0.352
					c3.928,0.627,7.604,1.999,11.026,4.115c3.52,1.897,6.131,5.033,8.635,8.039c-5.076,16.871-10.151,33.741-15.228,50.612
					c-2.546,1.007-5.178,1.699-7.892,2.078c-4.205,0.845-8.524,0.114-12.665-0.602c-4.112-0.709-7.769-2.921-11.264-5.035
					c-3.476-2.105-6.068-5.381-8.54-8.507c-2.548-3.224-3.849-7.184-5.102-11.018c-0.702-2.706-1.07-5.456-1.104-8.252
					c-0.168-18.02,12.525-29.393,38.083-34.121c0.764,0.03,0.826-0.609,0.169-0.879c-1.22-0.501-3.036-0.922-4.357-0.842
					c-2.923-0.002-5.801,0.352-8.634,1.066c-2.753,0.684-5.386,1.686-7.896,3.008c-5.163,2.332-9.076,6.63-12.554,10.929
					c-3.681,4.55-5.206,10.339-6.334,15.928c-0.393,3.023-0.419,6.052-0.08,9.081c0.229,4.431,2.118,8.619,3.927,12.567
					c1.761,3.849,5.084,7.925,8.425,10.499c2.086,1.789,4.348,3.323,6.784,4.602c1.329,0.6,2.665,1.184,4.005,1.754
					c2.796,1.218,5.737,1.551,8.704,2.029c2.846,0.458,6.905,0.279,9.72-0.334c5.725-1.245,11.389-3.148,15.939-7.021
					c1.197-0.83,2.28-1.781,3.249-2.851c1.897-1.866,3.563-3.924,4.995-6.171c1.527-2.408,2.753-4.962,3.678-7.659
					c1.665-4.057,1.783-8.532,1.899-12.83c0.158-5.778-2.115-11.283-4.591-16.342c-1.784-3.645-5.063-7.391-8.28-9.823
					c-2.229-1.686-4.32-3.344-6.905-4.493c-1.268-0.563-2.536-1.127-3.804-1.688c-1.35-0.413-2.698-0.824-4.047-1.236
					c-2.754-0.775-5.563-1.191-8.425-1.251c-1.139-0.097,0.684,1.669,0.606,1.594c0.7,0.667,1.428,1.305,2.181,1.913
					C54.628,18.662,55.065,18.925,55.57,19.064z"/>
				<path opacity="0.1091" fill="#2A2929" d="M56.371,17.166c2.865,0.02,5.667,0.447,8.404,1.283
					c3.803,1.185,7.214,3.041,10.229,5.57c9.797,7.153,12.276,22.137,10.33,33.131c0.147-0.557,0.292-1.114,0.438-1.672
					c-0.569,1.864-1.139,3.73-1.709,5.595c0.208-0.543,0.416-1.085,0.623-1.628c-0.791,1.774-1.582,3.549-2.374,5.322
					c0.271-0.527,0.542-1.055,0.812-1.582c-0.981,1.659-1.962,3.319-2.944,4.979c0.333-0.501,0.667-1.001,1.001-1.502
					c-6.815,4.908-13.631,9.814-20.448,14.723c0.667-0.206,1.336-0.411,2.003-0.616c-3.388,0.552-6.776,1.101-10.165,1.65
					c1.165-0.035,2.332-0.07,3.498-0.105c-2.585-0.047-5.17-0.094-7.755-0.141c1.2,0.107,2.4,0.216,3.6,0.325
					c-2.592-0.357-5.185-0.716-7.779-1.073c1.196,0.266,2.393,0.53,3.589,0.795c-2.521-0.687-5.041-1.375-7.563-2.062
					c1.19,0.425,2.379,0.849,3.568,1.272c-2.426-0.99-4.854-1.979-7.282-2.968c0.727,0.349,1.453,0.697,2.178,1.046
					c-1.874-1.06-3.75-2.121-5.624-3.182c0.693,0.451,1.387,0.902,2.081,1.353c-1.741-1.28-3.482-2.562-5.225-3.844
					c0.632,0.544,1.265,1.088,1.896,1.63c-1.571-1.493-3.143-2.988-4.714-4.481c0.567,0.636,1.136,1.271,1.704,1.907
					c-1.391-1.683-2.782-3.364-4.173-5.048c0.479,0.709,0.958,1.416,1.437,2.123c-8.822-13.891-9.109-21.664-5.375-33.7
					c1.624-5.232,5.377-9.48,9.156-13.25c2.898-2.893,6.655-4.639,10.302-6.333c5.147-2.392,10.988-2.403,16.504-2.113
					c0.622,0.033,0.902-0.449,0.312-0.839c-0.857-0.565-2.604-1.396-3.647-1.358c-6.171,0.23-12.567,0.882-17.993,4.187
					c-1.333,0.663-2.585,1.443-3.758,2.345c-3.368,2.599-3.264,2.523-6.219,5.554c-1.978,2.029-4.051,5.156-5.187,7.751
					c-0.714,1.326-1.298,2.703-1.752,4.13c-1.064,3.803-1.16,4.342-1.784,8.275c-0.425,2.673-0.162,7.096,0.461,9.712
					c0.493,2.728,1.295,5.362,2.407,7.904c1.454,3.979,4.33,7.304,7.044,10.447c4.306,4.988,10.677,7.98,16.868,9.751
					c2.931,0.839,6.333,1.33,9.385,1.151c6.767-0.396,13.883-1.881,19.441-6.058c5.333-4.01,10.323-8.94,12.734-15.336
					c0.542-1.274,1.019-2.573,1.43-3.894c0.75-3.194,0.982-4.462,1.345-7.746c0.665-6.028-1.059-11.768-3.276-17.268
					c-2.652-6.579-8.235-11.325-13.971-15.099c-4.858-3.194-10.937-4.237-16.576-4.754c-0.927-0.084,0.047,1.269,0.136,1.386
					C54.455,15.42,55.489,17.095,56.371,17.166z"/>
				<path opacity="0.1091" fill="#2A2929" d="M56.784,18.658c2.882,0.013,5.701,0.441,8.456,1.286
					c6.226,1.89,11.409,5.58,15.552,11.07c4.399,5.247,5.802,12.233,6.338,18.824c0.573,7.059-2.348,13.768-5.9,19.624
					c-1.538,2.218-3.313,4.226-5.328,6.022c-1.055,0.835-2.108,1.669-3.161,2.504c-1.139,0.702-2.277,1.405-3.416,2.108
					c-4.137-21.274-8.274-42.546-12.413-63.82c0.874,0.034,1.05-0.522,0.204-0.872c-1.682-0.692-4.076-1.386-5.902-1.187
					c-3.838,0.418-4.485,0.561-8.237,1.433c-4.183,0.972-7.883,3.458-11.374,5.813c-4.704,3.176-7.859,8.071-10.569,12.907
					c-2.857,5.098-3.403,11.052-3.587,16.746c-0.143,4.394,1.309,8.646,2.722,12.719c1.855,5.341,5.797,9.625,9.767,13.459
					c4.116,3.977,9.597,6.03,14.937,7.669c5.739,1.761,11.866,0.95,17.602-0.178c4.252-0.835,8.039-3.196,11.638-5.454
					c4.9-3.074,8.253-7.954,11.129-12.812c2.187-3.694,3.647-8.842,3.82-13.114c0.122-3.023,0.35-6.105-0.3-9.102
					c-1.217-5.601-2.983-11.461-6.799-15.93c-1.733-2.275-3.7-4.328-5.902-6.155c-2.216-1.816-4.61-3.355-7.182-4.619
					c-5.012-2.833-10.841-3.792-16.475-4.294c-1.187-0.105,0.661,1.855,0.635,1.823c0.749,0.843,1.528,1.659,2.335,2.447
					C55.763,18.051,56.232,18.413,56.784,18.658z"/>
				<path opacity="0.1091" fill="#2A2929" d="M58.54,20.723c5.47,0.028,10.602,1.549,15.395,4.563
					c3.488,1.921,6.056,5.123,8.487,8.159c2.527,3.155,3.746,7.085,4.93,10.863c1.263,4.026,0.923,8.374,0.6,12.487
					c-0.338,4.298-2.245,8.169-4.122,11.946C77.831,80.82,67.915,83.89,57.148,85.383c-10.547,1.463-22.312-5.135-28.878-12.441
					c-0.766-1.079-1.531-2.157-2.296-3.233c-0.64-1.173-1.277-2.345-1.916-3.516c11.514-16.019,23.03-32.037,34.544-48.055
					c0.262,0.01,1.488-0.01,1.035-0.68c-0.413-0.61-2.095-0.595-2.714-0.604c-2.861-0.037-5.612-0.029-8.428,0.537
					c-3.557,0.714-6.723,1.877-10.028,3.364c-2.346,1.055-5.289,3.114-7.131,4.904c-2.858,2.776-5.619,5.662-7.423,9.269
					c-0.718,1.163-1.308,2.381-1.771,3.654c-1.237,3.626-1.28,3.853-2.102,7.645c-0.478,2.199-0.612,6.487-0.256,8.728
					c0.187,1.326,0.399,2.648,0.634,3.967c1.175,4.324,0.893,3.519,2.625,7.775c1.168,2.482,2.612,4.794,4.328,6.934
					c1.348,1.897,4.177,4.646,6.08,5.95c1.098,0.871,2.251,1.651,3.46,2.343c4.101,2.113,3.109,1.682,7.496,3.269
					c5.643,2.042,11.719,1.565,17.506,0.719c4.296-0.63,8.18-2.819,11.898-4.896c1.954-1.093,5.553-4.085,6.963-5.833
					c1.992-2.199,3.708-4.594,5.153-7.185c2.475-3.903,3.235-8.693,3.906-13.144c0.325-3.091,0.195-6.161-0.391-9.21
					c-0.527-4.472-2.652-8.421-4.745-12.303c-1.562-2.41-3.381-4.608-5.458-6.594c-1.701-1.827-5.013-4.101-7.23-5.17
					c-1.239-0.68-2.511-1.284-3.817-1.814c-1.356-0.446-2.713-0.893-4.069-1.34c-2.742-0.816-5.543-1.252-8.406-1.311
					c-0.959-0.086,0.197,1.332,0.244,1.387C56.514,19.125,57.602,20.646,58.54,20.723z"/>
				<path opacity="0.1091" fill="#2A2929" d="M58.495,19.001c1.453,0.119,2.905,0.238,4.358,0.357
					c2.748,0.443,5.383,1.249,7.907,2.417c9.46,3.627,13.992,12.06,16.773,20.709c1.291,4.019,0.987,8.363,0.699,12.483
					c-0.354,2.836-1.081,5.572-2.183,8.209c-9.24,6.888-18.48,13.774-27.722,20.661c-7.608-20.572-15.217-41.144-22.827-61.716
					c-0.558,0.419-1.117,0.839-1.676,1.258c1.697-1.103,3.395-2.205,5.094-3.307c-0.618,0.34-1.233,0.681-1.85,1.021
					c1.835-0.886,3.671-1.771,5.508-2.656c-0.671,0.259-1.343,0.518-2.014,0.778c6.1-0.921,12.201-1.842,18.301-2.763
					c0.724,0.036,0.875-0.546,0.223-0.866c-1.085-0.533-2.982-1.181-4.202-1.085c-2.991,0.05-5.934,0.459-8.825,1.228
					c-4.136,0.836-7.827,3.168-11.331,5.368c-3.3,2.07-6.388,5.438-8.542,8.642c-2.877,4.284-5.156,9.018-5.932,14.172
					c-0.797,5.294-0.666,10.489,0.751,15.678c0.732,2.678,1.822,4.988,3.054,7.463c1.813,3.648,4.62,6.574,7.478,9.403
					c1.847,1.827,4.886,3.93,7.258,4.98c3.012,1.331,4.065,1.738,7.236,2.711c3.059,0.938,6.119,0.957,9.275,1.107
					c4.252,0.203,8.48-1.148,12.448-2.46c4.041-1.332,7.497-3.985,10.742-6.624c1.232-0.994,2.349-2.113,3.351-3.359
					c3.083-3.161,4.855-7.331,6.519-11.32c1.799-4.315,1.848-9.004,1.913-13.578c0.064-4.496-1.67-8.889-3.311-12.963
					c-1.172-2.911-2.85-4.892-4.68-7.362c-0.942-1.273-2.048-2.497-3.283-3.489c-1.124-0.904-2.248-1.808-3.37-2.711
					c-2.363-1.683-4.885-3.075-7.567-4.174c-3.881-1.856-8.3-2.352-12.507-2.753c-1.01-0.097,0.144,1.455,0.226,1.571
					c0.516,0.713,1.063,1.403,1.64,2.068C57.699,18.508,58.055,18.81,58.495,19.001z"/>
				<path opacity="0.1091" fill="#2A2929" d="M55.882,18.14c2.791-0.051,5.528,0.299,8.215,1.048
					c3.796,1.24,7.156,3.181,10.079,5.819c3.836,3.443,6.646,7.667,8.43,12.67c0.361,1.277,0.723,2.555,1.084,3.831
					C66.077,52.826,48.463,64.144,30.85,75.461c0.409,0.287,0.815,0.573,1.224,0.86C21.721,68.08,18.908,62.12,17.17,51.58
					c-0.71-4.298,0.178-8.598,1.042-12.778c2.144-10.378,13.519-19.399,21.96-22.771c5.225-2.089,10.987-1.837,16.44-1.279
					c0.773,0.08,0.662-1.124-0.165-1.203c-2.886-0.457-5.784-0.558-8.695-0.303c-2.831,0.25-5.592,0.83-8.284,1.74
					c-4.216,1.156-7.837,3.725-11.273,6.289c-3.682,2.746-6.225,6.588-8.663,10.391c-1.416,2.7-2.5,5.528-3.25,8.484
					c-1.405,4.424-0.892,9.359-0.392,13.852c0.465,2.947,1.333,5.77,2.604,8.467c1.585,4.082,4.517,7.332,7.398,10.514
					c2.657,2.936,6.365,4.902,9.808,6.717c4.62,2.435,10.575,3.425,15.773,3.246c2.646-0.092,5.663-0.358,8.185-1.164
					c1.315-0.319,2.591-0.747,3.828-1.279c2.954-1.278,3.779-1.725,6.551-3.364c6.717-3.974,12.54-11.751,14.265-19.378
					c0.387-1.345,0.688-2.708,0.902-4.087c0.378-4.349,0.364-3.653,0.238-8.041c-0.115-3.978-1.463-8.81-3.463-12.257
					c-0.627-1.184-1.302-2.339-2.023-3.466c-0.806-1.052-1.611-2.105-2.416-3.157c-1.765-2.018-3.753-3.78-5.969-5.289
					c-1.195-0.788-2.434-1.489-3.718-2.105c-1.26-0.506-2.521-1.013-3.78-1.518c-2.674-0.717-5.395-1.036-8.165-0.957
					C55.152,16.85,55.107,18.097,55.882,18.14z"/>
				<path opacity="0.1091" fill="#2A2929" d="M54.866,19.005c4.161,0.09,8.111,0.982,11.851,2.681
					c5.989,2.772,10.673,7.221,14.05,13.344c-0.275-0.501-0.551-1.002-0.826-1.502c-1.34,13.101-2.678,26.203-4.017,39.304
					c0.462-0.57,0.923-1.141,1.385-1.711c-1.408,1.496-2.815,2.993-4.223,4.491c0.538-0.507,1.078-1.014,1.618-1.521
					c-1.592,1.315-3.182,2.63-4.773,3.945c0.616-0.44,1.23-0.881,1.845-1.322c-1.752,1.127-3.504,2.254-5.257,3.38
					c0.67-0.353,1.341-0.706,2.013-1.059c-15.414,7.36-25.472,6.176-37.361-1.153c-4.645-2.863-7.821-7.533-10.574-12.081
					c-2.908-4.802-3.567-10.521-3.894-15.975c0.021-2.899,0.39-5.753,1.108-8.563c0.447-1.331,0.893-2.663,1.34-3.994
					c5.442-13.354,17.404-20.314,35.883-20.881c0.336,0.021,1.225,0.039,0.941-0.613c-0.31-0.711-2.097-0.768-2.734-0.786
					c-2.906-0.08-5.758-0.257-8.635,0.384c-1.401,0.25-2.785,0.569-4.152,0.952c-3.428,1.224-3.999,1.448-7.258,3.075
					c-4.035,2.016-7.124,5.172-10.162,8.406c-1.841,2.248-3.399,4.677-4.677,7.288c-2.242,3.98-2.834,8.664-3.375,13.096
					c-0.745,6.125,1.147,12.138,3.449,17.69c1.258,2.692,2.86,5.163,4.803,7.412c2.705,3.601,6.479,5.986,10.211,8.351
					c2.641,1.384,5.403,2.447,8.292,3.188c4.336,1.387,9.099,0.987,13.53,0.609c7.215-0.614,13.559-4.623,18.965-9.094
					c4.925-4.072,8.274-10.368,10.116-16.391c1.278-4.176,1.7-9.019,1.106-13.343c-0.721-5.265-2.143-10.678-5.312-15.062
					c-0.749-1.089-1.528-2.155-2.338-3.199c-0.907-0.963-1.814-1.927-2.723-2.892c-1.94-1.845-4.079-3.423-6.415-4.732
					c-4.836-3.124-10.696-3.941-16.28-4.446c-0.862-0.078,0.169,1.169,0.209,1.207C53.18,18.049,54.011,18.936,54.866,19.005z"/>
				<path opacity="0.1091" fill="#2A2929" d="M56.495,21.26c4.173,0.072,8.13,0.966,11.871,2.68c1.17,0.642,2.339,1.285,3.509,1.928
					c15.042,17.557,17.702,33.002,7.978,46.335C76.13,78,69.979,81.55,63.854,84.208c-2.62,0.923-5.312,1.536-8.077,1.835
					c-9.352,1.569-20.299-3.652-26.791-9.26c-3.126-2.7-5.157-6.358-7.123-9.906c-0.504-1.248-1.009-2.497-1.513-3.745
					c-5.306-26.522,6.614-41.309,35.762-44.361c0.381,0.017,1.546,0.21,1.588-0.468c0.042-0.675-1.137-0.638-1.517-0.663
					c-5.442-0.343-11.091-0.133-16.191,2.075c-2.478,1.073-4.892,2.023-7.086,3.651c-1.091,0.772-2.161,1.571-3.21,2.396
					c-2.537,2.422-2.937,2.824-5.211,5.52c-4.745,5.624-6.442,12.837-7.034,19.952c-0.25,3.013,0.342,5.858,0.821,8.806
					c0.616,2.747,1.544,5.385,2.786,7.914c1.661,3.95,4.681,7.153,7.571,10.202c2.03,2.144,4.488,3.533,6.945,5.092
					c3.971,2.518,8.64,3.429,13.171,4.271c3.077,0.311,6.148,0.259,9.214-0.152c2.969-0.479,5.845-1.287,8.628-2.425
					c2.713-1.203,5.258-2.689,7.637-4.461c3.674-2.432,6.294-6.272,8.695-9.844c3.387-5.034,4.342-11.084,4.804-16.971
					c0.061-2.967-0.255-5.893-0.948-8.778c-0.728-4.159-2.926-7.873-5.053-11.423c-2.812-4.693-7.351-7.953-11.895-10.76
					c-4.93-3.046-10.764-3.849-16.399-4.299c-0.954-0.076,0.425,1.294,0.392,1.267C54.542,20.265,55.522,21.182,56.495,21.26z"/>
				<path opacity="0.1091" fill="#2A2929" d="M58.376,17.249c5.51,0.062,10.673,1.624,15.49,4.684
					c3.508,1.949,6.084,5.287,8.478,8.383c3.771,5.542,5.61,11.852,5.514,18.929c-0.126,1.415-0.25,2.829-0.375,4.243
					c-7.26,8.769-14.521,17.537-21.78,26.306C50.895,66.34,36.089,52.887,21.282,39.433c-0.137,0.632-0.276,1.265-0.413,1.899
					c0.567-1.946,1.135-3.892,1.701-5.839c-0.23,0.606-0.461,1.212-0.691,1.819c0.812-1.835,1.626-3.669,2.439-5.505
					c-0.321,0.575-0.644,1.149-0.965,1.723c6.017-9.903,10.105-13.269,18.87-17.203c5.194-2.332,11.035-2.248,16.561-1.882
					c0.517,0.033,0.815-0.433,0.373-0.813c-0.602-0.517-2.011-1.297-2.822-1.29c-3.134-0.158-6.245,0.045-9.332,0.61
					c-4.416,0.549-8.536,2.937-12.28,5.132c-2.449,1.586-4.638,3.471-6.572,5.654c-3.102,3.064-4.935,7.016-6.716,10.904
					c-0.947,2.42-1.592,4.916-1.937,7.489c-0.315,1.667-0.497,3.399-0.418,5.093c0.176,3.75,0.601,7.06,1.564,10.688
					c1.34,5.048,4.278,10.164,7.919,13.869c2.721,2.77,5.521,4.886,8.799,6.961c3.527,2.232,7.815,3.142,11.842,3.892
					c6.722,1.253,15.16-0.189,21.032-3.603c1.214-0.579,2.36-1.261,3.438-2.049c2.99-2.2,3.156-2.353,5.852-4.899
					c3.058-2.889,5.016-6.64,6.827-10.357c1.91-3.926,2.984-9.2,2.742-13.56c0.02-1.47-0.071-2.93-0.271-4.379
					c-0.822-4.509-0.642-3.787-2.106-8.303c-1.021-2.663-2.373-5.147-4.054-7.451c-2.312-3.648-5.796-6.206-9.211-8.706
					c-2.172-1.589-5.323-2.604-7.805-3.544c-2.93-1.112-5.586-1.233-8.655-1.549C55.868,14.118,57.587,17.181,58.376,17.249z"/>
				<path opacity="0.1091" fill="#2A2929" d="M55.316,20.547c10.451,0.81,16.451,3.865,23.812,12.655
					c-0.365-0.508-0.731-1.016-1.096-1.523c1.05,1.619,2.101,3.239,3.15,4.856c-0.318-0.556-0.638-1.113-0.956-1.669
					c0.869,1.745,1.737,3.489,2.606,5.233c-0.257-0.598-0.515-1.196-0.772-1.794c0.906,3.178,1.812,6.356,2.718,9.534
					c-0.112-0.666-0.226-1.33-0.338-1.995c0.194,2.031,0.388,4.06,0.582,6.09c-0.029-0.688-0.06-1.376-0.089-2.064
					c-0.054,2.085-0.108,4.173-0.162,6.26c0.063-0.689,0.127-1.377,0.189-2.066c-0.327,2.069-0.653,4.139-0.98,6.208
					c0.158-0.686,0.314-1.37,0.472-2.057c-0.582,1.993-1.162,3.985-1.743,5.979c0.25-0.654,0.502-1.309,0.754-1.964
					c-0.829,1.88-1.66,3.76-2.489,5.639c0.345-0.62,0.688-1.238,1.033-1.858c-3.549,7.015-8.606,12.237-15.17,15.664
					c-2.407,1.267-4.932,2.224-7.574,2.872c-5.491,1.708-11.326,0.995-16.824-0.083c-5.509-1.08-10.198-4.457-14.392-7.96
					c-2.003-1.86-3.748-3.937-5.232-6.233c-0.681-1.183-1.36-2.366-2.042-3.549c-9.264-27.83,2.35-44.059,34.841-48.686
					c0.372,0.021,1.138-0.136,0.831-0.713c-0.299-0.559-1.638-0.486-2.143-0.511c-5.474-0.274-11.154,0.044-16.235,2.364
					c-2.459,1.124-4.959,2.161-7.118,3.842c-1.087,0.821-2.158,1.66-3.214,2.518c-2.57,2.561-3.12,3.17-5.474,6.119
					c-2.544,3.188-4.662,7.953-5.373,11.953c-0.357,1.463-0.61,2.941-0.757,4.435c-0.224,4.383-0.241,4.101,0.106,8.461
					c0.482,6.076,3.318,11.453,6.548,16.457c1.707,2.393,3.698,4.521,5.977,6.379c3.327,3.109,7.524,4.798,11.663,6.471
					c2.991,0.914,6.048,1.466,9.171,1.655c3.111,0.092,6.189-0.179,9.237-0.808c2.914-0.692,5.709-1.706,8.391-3.041
					c3.978-1.708,7.204-4.947,10.186-7.953c4.058-4.093,6.169-9.562,7.84-14.932c1.176-3.776,1.409-8.965,0.725-12.911
					c-0.476-2.742-0.887-5.444-2-8.029c-1.525-3.541-3.28-6.549-5.595-9.633c-2.558-3.408-6.162-5.837-9.718-8.054
					c-4.886-3.046-10.671-3.813-16.262-4.26c-0.923-0.075,0.378,1.247,0.358,1.232C53.459,19.646,54.377,20.474,55.316,20.547z"/>
				<path opacity="0.1091" fill="#2A2929" d="M57.796,17.067c1.451,0.123,2.901,0.245,4.352,0.367
					c2.763,0.413,5.394,1.24,7.895,2.483c6.086,2.462,10.344,8.08,13.52,13.597c3.932,6.829,3.522,16.661,1.932,23.644
					c-0.475,1.287-0.948,2.573-1.421,3.86c-10.008,22.1-31.598,17.389-64.771-14.133c-0.001,0.534-0.004,1.068-0.007,1.604
					c0.022-9.693,3.042-17.771,9.059-24.234c2.599-3.143,6.259-5.241,9.737-7.217c2.461-1.246,5.041-2.156,7.739-2.733
					c4.181-1.179,8.521-0.774,12.761-0.39c0.353,0.032,0.582-0.544,0.399-0.8c-0.278-0.392-1.037-0.722-1.506-0.753
					c-3.081-0.375-6.164-0.392-9.249-0.045c-2.989,0.423-5.894,1.179-8.711,2.267c-2.742,1.163-5.32,2.614-7.738,4.353
					c-3.714,2.371-6.389,6.204-8.827,9.747c-4.152,6.036-5.056,13.559-4.836,20.658c0.09,2.892,0.854,6.229,1.879,8.926
					c1.729,4.554,4.016,9.028,7.455,12.557c2.79,2.861,5.748,5.608,9.417,7.343c2.246,1.201,4.596,2.144,7.053,2.826
					c2.595,0.895,5.711,0.965,8.396,1.197c2.624,0.227,5.604-0.398,8.184-0.787c2.151-0.325,5.977-1.663,7.881-2.725
					c1.175-0.57,2.312-1.209,3.405-1.917c3.541-2.488,2.92-1.988,6.129-4.884c3.176-2.867,5.242-6.668,7.184-10.397
					c2.015-3.873,2.443-8.235,2.854-12.482c0.412-4.263-0.734-8.541-1.887-12.573c-1.542-5.394-5.251-9.66-9.106-13.515
					c-2.064-1.844-4.346-3.362-6.846-4.554c-3.804-2.161-8.125-2.551-12.366-2.917C56.623,15.34,57.084,17.008,57.796,17.067z"/>
				<path opacity="0.1091" fill="#2A2929" d="M55.227,19.085c5.409-0.116,10.468,1.38,15.177,4.486
					c3.32,3.811,6.64,7.621,9.96,11.433C68.701,50.869,57.038,66.733,45.375,82.598c0.497,0.059,0.994,0.115,1.491,0.173
					c-15.564-2.787-20.988-8.22-27.005-18.641c-2.811-4.866-3.332-10.634-3.535-16.097c-0.479-12.8,6.962-21.31,16-27.67
					c6.749-4.749,15.767-5.438,23.652-4.624c0.7,0.073,0.549-1.095-0.234-1.174c-1.454-0.202-2.911-0.345-4.374-0.425
					c-4.847,0.123-3.542,0.004-8.458,0.73c-6.968,1.03-12.936,5.31-17.997,9.891c-3.292,2.98-5.36,6.994-7.257,10.911
					c-2.098,4.335-2.484,9.162-2.811,13.875c0.051,3.048,0.451,6.049,1.2,9.002c0.841,4.348,3.427,8.262,5.837,11.851
					c1.734,2.36,3.76,4.437,6.078,6.229c3.313,2.948,7.435,4.5,11.509,6.017c3.904,1.454,8.318,1.412,12.406,1.372
					c2.537-0.026,5.913-0.664,8.264-1.524c6.069-2.217,11.838-5.257,16.062-10.309c2.562-3.062,5.027-6.295,6.327-10.144
					c0.563-1.259,0.983-2.556,1.255-3.894c0.835-3.909,0.812-3.864,1.11-7.852c0.483-6.461-1.814-14.416-5.73-19.527
					c-0.75-1.093-1.56-2.138-2.426-3.138c-0.941-0.94-1.882-1.879-2.823-2.821c-2.014-1.787-4.235-3.262-6.665-4.425
					c-3.731-2.121-7.953-2.37-12.122-2.569C54.361,17.779,54.452,19.04,55.227,19.085z"/>
			</g>
		</g>
	</g>
</g>
<text transform="matrix(1 0 0 1 36.7144 50)" fill="#2A2929" font-family="'Carolina'" font-size="60">az</text>
<text transform="matrix(1 0 0 1 31.5645 47.3779)" display="none" fill="#20b1e6" enable-background="new    " font-family="'Carolina'" font-size="72">az</text>
<text transform="matrix(0.9448 0 0 1 103.2861 55.1816)" fill="#20b1e6" font-family="'Carolina'" font-size="60">ackmatoff</text>
</svg>
